<?xml version="1.0" encoding="utf-8"?>
<!-- Generator: Adobe Illustrator 14.0.0, SVG Export Plug-In . SVG Version: 6.00 Build 43363)  -->
<!DOCTYPE svg PUBLIC "-//W3C//DTD SVG 1.1//EN" "http://www.w3.org/Graphics/SVG/1.1/DTD/svg11.dtd">
<svg version="1.1" id="Capa_1" xmlns="http://www.w3.org/2000/svg" xmlns:xlink="http://www.w3.org/1999/xlink" x="0px" y="0px"
	 width="612px" height="792px" viewBox="0 0 612 792" enable-background="new 0 0 612 792" xml:space="preserve">
<linearGradient id="SVGID_1_" gradientUnits="userSpaceOnUse" x1="597.0784" y1="307.96" x2="-28.7151" y2="523.4379">
	<stop  offset="1" style="stop-color:#FFFFFF"/>
	<stop  offset="1" style="stop-color:#FDFDFD"/>
	<stop  offset="1" style="stop-color:#F6F6F6"/>
	<stop  offset="1" style="stop-color:#EBEBEB"/>
	<stop  offset="1" style="stop-color:#DADADA"/>
	<stop  offset="1" style="stop-color:#C4C4C4"/>
	<stop  offset="1" style="stop-color:#A8A8A8"/>
	<stop  offset="1" style="stop-color:#888888"/>
	<stop  offset="1" style="stop-color:#626262"/>
	<stop  offset="1" style="stop-color:#373737"/>
	<stop  offset="1" style="stop-color:#090909"/>
	<stop  offset="1" style="stop-color:#000000"/>
</linearGradient>
<path fill="url(#SVGID_1_)" d="M191.25,204.75C191.25,141.375,242.625,90,306,90c63.374,0,114.75,51.375,114.75,114.75
	S369.374,319.5,306,319.5C242.625,319.5,191.25,268.125,191.25,204.75z M286.875,386.438V702l-57.854-28.927
	c-24.981-12.431-51.996-20.32-79.847-23.069l-114.75-11.475C14.942,636.497,0,620.121,0,600.398V357.75
	c0-21.157,17.093-38.25,38.25-38.25h36.218C150.49,319.5,224.599,342.928,286.875,386.438z M325.125,702V386.438
	C387.401,342.928,461.51,319.5,537.531,319.5h36.219c21.156,0,38.25,17.093,38.25,38.25v242.648
	c0,19.604-14.941,36.099-34.426,38.011l-114.75,11.476c-27.73,2.749-54.864,10.638-79.847,23.069L325.125,702z"/>
</svg>
