<?xml version="1.0" encoding="utf-8"?>
<!-- Generator: Adobe Illustrator 14.0.0, SVG Export Plug-In . SVG Version: 6.00 Build 43363)  -->
<!DOCTYPE svg PUBLIC "-//W3C//DTD SVG 1.1//EN" "http://www.w3.org/Graphics/SVG/1.1/DTD/svg11.dtd">
<svg version="1.1" id="Capa_1" xmlns="http://www.w3.org/2000/svg" xmlns:xlink="http://www.w3.org/1999/xlink" x="0px" y="0px"
	 width="612px" height="792px" viewBox="0 0 612 792" enable-background="new 0 0 612 792" xml:space="preserve">
<path fill="#FFFFFF" d="M420.75,396c0,26.536-1.435,52.115-3.945,76.5H195.314c-2.629-24.385-3.944-49.964-3.944-76.5
	s1.435-52.116,3.944-76.5h221.491C419.435,343.884,420.75,369.464,420.75,396z M455.175,319.5h147.143
	C608.653,344.004,612,369.583,612,396c0,26.416-3.348,51.996-9.683,76.5H455.175c2.51-24.623,3.825-50.203,3.825-76.5
	S457.685,344.124,455.175,319.5z M589.767,281.25H450.274c-11.953-76.38-35.62-140.33-66.101-181.209
	c93.593,24.743,169.734,92.637,205.475,181.209H589.767z M411.546,281.25H200.454c7.291-43.509,18.527-81.999,32.273-113.196
	c12.551-28.209,26.535-48.649,40.043-61.559C286.157,93.825,297.275,90,306,90s19.842,3.825,33.229,16.495
	c13.507,12.91,27.492,33.35,40.043,61.559C393.138,199.132,404.254,237.621,411.546,281.25z M161.726,281.25H22.233
	c35.859-88.573,111.882-156.466,205.594-181.209C197.346,140.92,173.679,204.87,161.726,281.25L161.726,281.25z M9.682,319.5
	h147.144C154.315,344.124,153,369.703,153,396s1.314,51.877,3.825,76.5H9.682C3.347,447.996,0,422.416,0,396
	C0,369.583,3.347,344.004,9.682,319.5z M232.728,623.826c-13.866-31.078-24.982-69.566-32.273-113.076h211.092
	c-7.292,43.51-18.527,81.998-32.273,113.076c-12.551,28.21-26.536,48.649-40.043,61.559C325.842,698.175,314.726,702,306,702
	s-19.843-3.825-33.229-16.495c-13.508-12.909-27.492-33.35-40.043-61.559V623.826z M161.726,510.75
	c11.953,76.381,35.62,140.33,66.101,181.209C134.115,667.217,58.092,599.322,22.233,510.75H161.726z M589.767,510.75
	c-35.859,88.572-111.881,156.467-205.474,181.209c30.48-40.879,54.027-104.828,66.101-181.209h139.493H589.767z"/>
</svg>
