<?xml version="1.0" encoding="utf-8"?>
<!-- Generator: Adobe Illustrator 14.0.0, SVG Export Plug-In . SVG Version: 6.00 Build 43363)  -->
<!DOCTYPE svg PUBLIC "-//W3C//DTD SVG 1.1//EN" "http://www.w3.org/Graphics/SVG/1.1/DTD/svg11.dtd">
<svg version="1.1" id="Capa_1" xmlns="http://www.w3.org/2000/svg" xmlns:xlink="http://www.w3.org/1999/xlink" x="0px" y="0px"
	 width="612px" height="792px" viewBox="0 0 612 792" enable-background="new 0 0 612 792" xml:space="preserve">
<path fill="#FFFFFF" d="M0,226h612c0-37.506-30.494-68-68-68H68C30.493,158,0,188.494,0,226z M0,260v306c0,37.506,30.493,68,68,68
	h476c37.506,0,68-30.494,68-68V260H0z M68,554.631C68,523.287,93.394,498,124.631,498h124.632c31.344,0,56.631,25.394,56.631,56.631
	c0,6.27-5.101,11.369-11.369,11.369H79.368C73.1,566,68,560.9,68,554.631z M190,328c37.555,0,68,30.445,68,68
	c0,37.556-30.445,68-68,68c-37.556,0-68-30.444-68-68C122,358.445,152.445,328,190,328z M374,345c0-9.35,7.649-17,17-17h136
	c9.35,0,17,7.65,17,17s-7.65,17-17,17H391C381.65,362,374,354.35,374,345z M374,413c0-9.35,7.649-17,17-17h136c9.35,0,17,7.65,17,17
	s-7.65,17-17,17H391C381.65,430,374,422.35,374,413z M374,481c0-9.35,7.649-17,17-17h136c9.35,0,17,7.65,17,17s-7.65,17-17,17H391
	C381.65,498,374,490.35,374,481z"/>
</svg>
