<?xml version="1.0" encoding="utf-8"?>
<!-- Generator: Adobe Illustrator 14.0.0, SVG Export Plug-In . SVG Version: 6.00 Build 43363)  -->
<!DOCTYPE svg PUBLIC "-//W3C//DTD SVG 1.1//EN" "http://www.w3.org/Graphics/SVG/1.1/DTD/svg11.dtd">
<svg version="1.1" id="Capa_1" xmlns="http://www.w3.org/2000/svg" xmlns:xlink="http://www.w3.org/1999/xlink" x="0px" y="0px"
	 width="16px" height="16px" viewBox="0 0 16 16" enable-background="new 0 0 16 16" xml:space="preserve">
<path fill="#FFFFFF" d="M2.5,12c0-0.276,0.224-0.5,0.5-0.5h10c0.276,0,0.5,0.224,0.5,0.5s-0.224,0.5-0.5,0.5H3
	C2.724,12.5,2.5,12.276,2.5,12 M2.5,8c0-0.276,0.224-0.5,0.5-0.5h10c0.276,0,0.5,0.224,0.5,0.5S13.276,8.5,13,8.5H3
	C2.724,8.5,2.5,8.276,2.5,8 M2.5,4c0-0.276,0.224-0.5,0.5-0.5h10c0.276,0,0.5,0.224,0.5,0.5S13.276,4.5,13,4.5H3
	C2.724,4.5,2.5,4.276,2.5,4"/>
</svg>
