<?xml version="1.0" encoding="utf-8"?>
<!-- Generator: Adobe Illustrator 14.0.0, SVG Export Plug-In . SVG Version: 6.00 Build 43363)  -->
<!DOCTYPE svg PUBLIC "-//W3C//DTD SVG 1.1//EN" "http://www.w3.org/Graphics/SVG/1.1/DTD/svg11.dtd">
<svg version="1.1" id="Capa_1" xmlns="http://www.w3.org/2000/svg" xmlns:xlink="http://www.w3.org/1999/xlink" x="0px" y="0px"
	 width="612px" height="792px" viewBox="0 0 612 792" enable-background="new 0 0 612 792" xml:space="preserve">
<path fill="#FFFFFF" d="M497.25,338.625c0,54.865-17.811,105.546-47.813,146.665l151.326,151.446
	c14.941,14.941,14.941,39.206,0,54.147s-39.206,14.941-54.147,0L395.289,539.438c-41.118,30.122-91.8,47.813-146.664,47.813
	C111.283,587.25,0,475.967,0,338.625C0,201.284,111.283,90,248.625,90C385.966,90,497.25,201.284,497.25,338.625z M248.625,510.75
	c95.062,0,172.125-77.063,172.125-172.125c0-95.062-77.063-172.125-172.125-172.125C153.563,166.5,76.5,243.563,76.5,338.625
	C76.5,433.688,153.563,510.75,248.625,510.75z"/>
</svg>
