<?xml version="1.0" encoding="utf-8"?>
<!-- Generator: Adobe Illustrator 14.0.0, SVG Export Plug-In . SVG Version: 6.00 Build 43363)  -->
<!DOCTYPE svg PUBLIC "-//W3C//DTD SVG 1.1//EN" "http://www.w3.org/Graphics/SVG/1.1/DTD/svg11.dtd">
<svg version="1.1" id="Capa_1" xmlns="http://www.w3.org/2000/svg" xmlns:xlink="http://www.w3.org/1999/xlink" x="0px" y="0px"
	 width="612px" height="792px" viewBox="0 0 612 792" enable-background="new 0 0 612 792" xml:space="preserve">
<path fill="#FFFFFF" d="M182.25,247.5c0-54.604,44.396-99,99-99h49.5c54.604,0,99,44.396,99,99v5.569
	c0,33.722-17.171,65.124-45.479,83.222l-65.278,41.92c-38.98,25.06-62.493,68.217-62.493,114.469v2.166
	c0,27.379,22.12,49.5,49.5,49.5c27.379,0,49.5-22.121,49.5-49.5v-2.166c0-12.685,6.496-24.44,17.016-31.247l65.277-41.92
	c56.616-36.506,90.957-99.155,90.957-166.599v-5.569c0-109.364-88.637-198-198-198h-49.5c-109.364,0.155-198,88.791-198,198.155
	c0,27.38,22.12,49.5,49.5,49.5S182.25,274.88,182.25,247.5z M306,742.5c34.172,0,61.875-27.702,61.875-61.875
	S340.172,618.75,306,618.75c-34.173,0-61.875,27.702-61.875,61.875S271.827,742.5,306,742.5z"/>
</svg>
